# xmcd CD database file
#
# Track frame offsets:
#	182
#	12990
#	25420
#	36377
#	48147
#	58005
#	68322
#	78837
#	91010
#	104402
#	117572
#	128880
#	143257
#	155997
#	167000
#	180010
#	190750
#	203975
#	214942
#	223775
#
# Disc length: 3165 seconds
#
# Revision: 0
# Processed by: cddbd v1.5.2PL0 Copyright (c) Steve Scherf et al.
# Submitted via: CDex 1.70beta2
#
DISCID=0f0c5b14
DTITLE=The Best Mexican Songs by Mariachi Cocula - Puerto Vallarta
DYEAR=1997
DGENRE=Merengue
TTITLE0=Volver Volver
TTITLE1=Ella
TTITLE2=Tu Camino Y El Mio
TTITLE3=Amaneci En Tus Brazos
TTITLE4=Los Laureles
TTITLE5=El Rey
TTITLE6=Ni En Defensa Propia
TTITLE7=Me Cai De La Nube
TTITLE8=Llegando A Ti
TTITLE9=Me Caiste Del Cielo
TTITLE10=El Jarabe Tapatto
TTITLE11=San Diego
TTITLE12=Son De La Negra
TTITLE13=Lagunas De Pesares
TTITLE14=El Torito Tasqueno
TTITLE15=Que Se Muera El Recuerdo
TTITLE16=Cruz De Olvido
TTITLE17=Pa'Que Lan Lengue Te Muerdas
TTITLE18=Amores Ingratos
TTITLE19=Malaguena
EXTD=YEAR: 1997
EXTT0=
EXTT1=
EXTT2=
EXTT3=
EXTT4=
EXTT5=
EXTT6=
EXTT7=
EXTT8=
EXTT9=
EXTT10=
EXTT11=
EXTT12=
EXTT13=
EXTT14=
EXTT15=
EXTT16=
EXTT17=
EXTT18=
EXTT19=
PLAYORDER=
